REM DIRINDEX 1\2\4\8,1\2\4\9,1\2\4\10,1\2\5\11,1\2\5\12,1\2\5\13,1\2\5\14,1\2\5\15,1\3\6\16,1\3\6\17,1\3\6\18,1\3\7\19,1\3\7\20,1\3\7\21,1\3\7\22,1\3\7\23
REM DIRNAME "folder01","folder02","folder03","folder04","folder05","folder06","folder07","folder08","folder09","folder10","folder11","folder12","folder13","folder14","folder15","folder16","folder17","folder18","folder19","folder20","folder21","folder22","folder23"
TITLE ""
FILE "LR_black_phrase_E_S03.mp3" MP3
  TRACK 01 AUDIO
    TITLE "0:"
    INDEX 01 00:00:00
  TRACK 02 AUDIO
    TITLE "16:cjc171_10521"
    INDEX 01 00:00:10
  TRACK 03 AUDIO
    TITLE "0:"
    INDEX 01 00:01:27
  TRACK 04 AUDIO
    TITLE "17:cjc171_10522"
    INDEX 01 00:01:47
  TRACK 05 AUDIO
    TITLE "0:"
    INDEX 01 00:03:54
  TRACK 06 AUDIO
    TITLE "18:cjc171_10523"
    INDEX 01 00:04:24
  TRACK 07 AUDIO
    TITLE "0:"
    INDEX 01 00:06:31
  TRACK 08 AUDIO
    TITLE "16:cjc171_10524"
    INDEX 01 00:07:32
  TRACK 09 AUDIO
    TITLE "0:"
    INDEX 01 00:08:61
  TRACK 10 AUDIO
    TITLE "17:cjc171_10525"
    INDEX 01 00:09:17
  TRACK 11 AUDIO
    TITLE "0:"
    INDEX 01 00:12:04
  TRACK 12 AUDIO
    TITLE "18:cjc171_10526"
    INDEX 01 00:12:61
  TRACK 13 AUDIO
    TITLE "0:"
    INDEX 01 00:15:47
  TRACK 14 AUDIO
    TITLE "16:cjc171_10527"
    INDEX 01 00:16:45
  TRACK 15 AUDIO
    TITLE "0:"
    INDEX 01 00:18:02
  TRACK 16 AUDIO
    TITLE "17:cjc171_10528"
    INDEX 01 00:18:30
  TRACK 17 AUDIO
    TITLE "0:"
    INDEX 01 00:20:48
  TRACK 18 AUDIO
    TITLE "18:cjc171_10529"
    INDEX 01 00:21:20
  TRACK 19 AUDIO
    TITLE "0:"
    INDEX 01 00:23:39
  TRACK 20 AUDIO
    TITLE "16:cjc171_10530"
    INDEX 01 00:24:34
  TRACK 21 AUDIO
    TITLE "0:"
    INDEX 01 00:25:65
  TRACK 22 AUDIO
    TITLE "17:cjc171_10531"
    INDEX 01 00:26:12
  TRACK 23 AUDIO
    TITLE "0:"
    INDEX 01 00:28:18
  TRACK 24 AUDIO
    TITLE "18:cjc171_10532"
    INDEX 01 00:28:65
  TRACK 25 AUDIO
    TITLE "0:"
    INDEX 01 00:30:72
  TRACK 26 AUDIO
    TITLE "16:cjc171_10533"
    INDEX 01 00:31:72
  TRACK 27 AUDIO
    TITLE "0:"
    INDEX 01 00:33:16
  TRACK 28 AUDIO
    TITLE "17:cjc171_10534"
    INDEX 01 00:33:45
  TRACK 29 AUDIO
    TITLE "0:"
    INDEX 01 00:37:08
  TRACK 30 AUDIO
    TITLE "18:cjc171_10535"
    INDEX 01 00:37:62
  TRACK 31 AUDIO
    TITLE "0:"
    INDEX 01 00:41:27
  TRACK 32 AUDIO
    TITLE "16:cjc171_10536"
    INDEX 01 00:42:30
  TRACK 33 AUDIO
    TITLE "0:"
    INDEX 01 00:43:57
  TRACK 34 AUDIO
    TITLE "17:cjc171_10537"
    INDEX 01 00:44:12
  TRACK 35 AUDIO
    TITLE "0:"
    INDEX 01 00:46:01
  TRACK 36 AUDIO
    TITLE "18:cjc171_10538"
    INDEX 01 00:46:57
  TRACK 37 AUDIO
    TITLE "0:"
    INDEX 01 00:48:49
  TRACK 38 AUDIO
    TITLE "16:cjc171_10539"
    INDEX 01 00:49:54
  TRACK 39 AUDIO
    TITLE "0:"
    INDEX 01 00:50:65
  TRACK 40 AUDIO
    TITLE "17:cjc171_10540"
    INDEX 01 00:51:19
  TRACK 41 AUDIO
    TITLE "0:"
    INDEX 01 00:53:63
  TRACK 42 AUDIO
    TITLE "18:cjc171_10541"
    INDEX 01 00:54:43
  TRACK 43 AUDIO
    TITLE "0:"
    INDEX 01 00:57:10
  TRACK 44 AUDIO
    TITLE "16:cjc171_10542"
    INDEX 01 00:58:14
  TRACK 45 AUDIO
    TITLE "0:"
    INDEX 01 00:59:39
  TRACK 46 AUDIO
    TITLE "17:cjc171_10543"
    INDEX 01 00:59:54
  TRACK 47 AUDIO
    TITLE "0:"
    INDEX 01 01:02:56
  TRACK 48 AUDIO
    TITLE "18:cjc171_10544"
    INDEX 01 01:03:27
  TRACK 49 AUDIO
    TITLE "0:"
    INDEX 01 01:06:29
  TRACK 50 AUDIO
    TITLE "16:cjc171_10545"
    INDEX 01 01:07:32
  TRACK 51 AUDIO
    TITLE "0:"
    INDEX 01 01:08:41
  TRACK 52 AUDIO
    TITLE "17:cjc171_10546"
    INDEX 01 01:08:73
  TRACK 53 AUDIO
    TITLE "0:"
    INDEX 01 01:11:08
  TRACK 54 AUDIO
    TITLE "18:cjc171_10547"
    INDEX 01 01:11:65
  TRACK 55 AUDIO
    TITLE "0:"
    INDEX 01 01:14:01
  TRACK 56 AUDIO
    TITLE "16:cjc171_10548"
    INDEX 01 01:15:06
  TRACK 57 AUDIO
    TITLE "0:"
    INDEX 01 01:16:29
  TRACK 58 AUDIO
    TITLE "17:cjc171_10549"
    INDEX 01 01:16:60
  TRACK 59 AUDIO
    TITLE "0:"
    INDEX 01 01:18:67
  TRACK 60 AUDIO
    TITLE "18:cjc171_10550"
    INDEX 01 01:19:47
  TRACK 61 AUDIO
    TITLE "0:"
    INDEX 01 01:21:56
  TRACK 62 AUDIO
    TITLE "16:cjc171_10551"
    INDEX 01 01:22:55
  TRACK 63 AUDIO
    TITLE "0:"
    INDEX 01 01:24:03
  TRACK 64 AUDIO
    TITLE "17:cjc171_10552"
    INDEX 01 01:24:23
  TRACK 65 AUDIO
    TITLE "0:"
    INDEX 01 01:26:71
  TRACK 66 AUDIO
    TITLE "18:cjc171_10553"
    INDEX 01 01:27:43
  TRACK 67 AUDIO
    TITLE "0:"
    INDEX 01 01:30:16
  TRACK 68 AUDIO
    TITLE "16:cjc171_10554"
    INDEX 01 01:31:13
  TRACK 69 AUDIO
    TITLE "0:"
    INDEX 01 01:32:34
  TRACK 70 AUDIO
    TITLE "17:cjc171_10555"
    INDEX 01 01:32:56
  TRACK 71 AUDIO
    TITLE "0:"
    INDEX 01 01:34:49
  TRACK 72 AUDIO
    TITLE "18:cjc171_10556"
    INDEX 01 01:35:19
  TRACK 73 AUDIO
    TITLE "0:"
    INDEX 01 01:37:14
  TRACK 74 AUDIO
    TITLE "16:cjc171_10557"
    INDEX 01 01:38:15
  TRACK 75 AUDIO
    TITLE "0:"
    INDEX 01 01:39:32
  TRACK 76 AUDIO
    TITLE "17:cjc171_10558"
    INDEX 01 01:39:64
  TRACK 77 AUDIO
    TITLE "0:"
    INDEX 01 01:42:21
  TRACK 78 AUDIO
    TITLE "18:cjc171_10559"
    INDEX 01 01:43:03
  TRACK 79 AUDIO
    TITLE "0:"
    INDEX 01 01:45:33
  TRACK 80 AUDIO
    TITLE "16:cjc171_10560"
    INDEX 01 01:46:36
  TRACK 81 AUDIO
    TITLE "0:"
    INDEX 01 01:47:71
  TRACK 82 AUDIO
    TITLE "17:cjc171_10561"
    INDEX 01 01:48:27
  TRACK 83 AUDIO
    TITLE "0:"
    INDEX 01 01:50:67
  TRACK 84 AUDIO
    TITLE "18:cjc171_10562"
    INDEX 01 01:51:41
  TRACK 85 AUDIO
    TITLE "0:"
    INDEX 01 01:54:06
  TRACK 86 AUDIO
    TITLE "16:cjc171_10563"
    INDEX 01 01:54:75
  TRACK 87 AUDIO
    TITLE "0:"
    INDEX 01 01:56:33
  TRACK 88 AUDIO
    TITLE "17:cjc171_10564"
    INDEX 01 01:56:52
  TRACK 89 AUDIO
    TITLE "0:"
    INDEX 01 01:59:39
  TRACK 90 AUDIO
    TITLE "18:cjc171_10565"
    INDEX 01 02:00:13
  TRACK 91 AUDIO
    TITLE "0:"
    INDEX 01 02:02:72
  TRACK 92 AUDIO
    TITLE "16:cjc171_10566"
    INDEX 01 02:03:72
  TRACK 93 AUDIO
    TITLE "0:"
    INDEX 01 02:05:22
  TRACK 94 AUDIO
    TITLE "17:cjc171_10567"
    INDEX 01 02:05:45
  TRACK 95 AUDIO
    TITLE "0:"
    INDEX 01 02:07:72
  TRACK 96 AUDIO
    TITLE "18:cjc171_10568"
    INDEX 01 02:08:42
  TRACK 97 AUDIO
    TITLE "0:"
    INDEX 01 02:10:70
  TRACK 98 AUDIO
    TITLE "16:cjc171_10569"
    INDEX 01 02:11:69
  TRACK 99 AUDIO
    TITLE "0:"
    INDEX 01 02:13:17
  TRACK 100 AUDIO
    TITLE "17:cjc171_10570"
    INDEX 01 02:13:47
  TRACK 101 AUDIO
    TITLE "0:"
    INDEX 01 02:17:64
  TRACK 102 AUDIO
    TITLE "18:cjc171_10571"
    INDEX 01 02:18:42
  TRACK 103 AUDIO
    TITLE "0:"
    INDEX 01 02:22:57
  TRACK 104 AUDIO
    TITLE "16:cjc171_10572"
    INDEX 01 02:23:63
  TRACK 105 AUDIO
    TITLE "0:"
    INDEX 01 02:25:05
  TRACK 106 AUDIO
    TITLE "17:cjc171_10573"
    INDEX 01 02:25:34
  TRACK 107 AUDIO
    TITLE "0:"
    INDEX 01 02:27:43
  TRACK 108 AUDIO
    TITLE "18:cjc171_10574"
    INDEX 01 02:28:25
  TRACK 109 AUDIO
    TITLE "0:"
    INDEX 01 02:30:31
  TRACK 110 AUDIO
    TITLE "16:cjc171_10575"
    INDEX 01 02:31:29
  TRACK 111 AUDIO
    TITLE "0:"
    INDEX 01 02:32:60
  TRACK 112 AUDIO
    TITLE "17:cjc171_10576"
    INDEX 01 02:33:06
  TRACK 113 AUDIO
    TITLE "0:"
    INDEX 01 02:36:18
  TRACK 114 AUDIO
    TITLE "18:cjc171_10577"
    INDEX 01 02:36:69
  TRACK 115 AUDIO
    TITLE "0:"
    INDEX 01 02:40:06
  TRACK 116 AUDIO
    TITLE "16:cjc171_10578"
    INDEX 01 02:41:08
  TRACK 117 AUDIO
    TITLE "0:"
    INDEX 01 02:42:31
  TRACK 118 AUDIO
    TITLE "17:cjc171_10579"
    INDEX 01 02:42:48
  TRACK 119 AUDIO
    TITLE "0:"
    INDEX 01 02:44:59
  TRACK 120 AUDIO
    TITLE "18:cjc171_10580"
    INDEX 01 02:45:29
  TRACK 121 AUDIO
    TITLE "0:"
    INDEX 01 02:47:38
